#!OML:ASF F:\VICON\USERDATA\INSTALL\rory3\rory3.ASF
:FULLY-SPECIFIED
:DEGREES
1049
root 4.41448 16.21 3.24283 8.80674 -37.8574 -0.453463
lowerback 10.8635 4.58232 1.93109
upperback 1.22283 6.16513 -2.38803
thorax -4.3147 2.99102 -4.44193
lowerneck -21.5328 -5.55775 -8.54272
upperneck 18.4477 -8.02522 12.7965
head 10.3684 -2.86403 4.74629
rclavicle 7.8023e-014 -1.66979e-014
rhumerus 46.669 -10.9514 -51.8824
rradius 68.3508
rwrist 16.9149
rhand -14.5385 16.6952
rfingers 7.12502
rthumb 11.6098 -12.9632
lclavicle 7.8023e-014 -1.66979e-014
lhumerus 14.6725 -32.8987 84.6399
lradius 126.676
lwrist -14.6942
lhand -3.11429 6.19516
lfingers 7.12502
lthumb 22.6043 34.8917
rfemur 4.27783 -7.37432 15.3517
rtibia 43.3733
rfoot -30.5193 -19.4128
rtoes -16.1655
lfemur -48.2781 -6.77117 -12.7133
ltibia 55.6363
lfoot -11.6569 -18.4482
ltoes -4.5629
1050
root 4.41064 16.2088 3.19992 8.82495 -38.1136 -0.538982
lowerback 10.795 4.68451 1.68268
upperback 1.32183 6.26699 -2.43455
thorax -4.1858 3.04901 -4.35263
lowerneck -21.7661 -5.43745 -8.48993
upperneck 18.4501 -7.79863 12.5702
head 10.3696 -2.77269 4.69033
rclavicle -6.07784e-014 1.61016e-014
rhumerus 44.0895 -10.4895 -52.511
rradius 73.6017
rwrist 14.3476
rhand -13.5494 16.6885
rfingers 7.12502
rthumb 12.5635 -12.9138
lclavicle -6.07784e-014 1.61016e-014
lhumerus 14.871 -32.3674 84.1731
lradius 126.64
lwrist -14.5392
lhand -3.24127 6.06591
lfingers 7.12502
lthumb 22.4824 34.7772
rfemur 4.09531 -7.19036 15.1401
rtibia 43.5473
rfoot -29.9884 -18.7149
rtoes -16.9289
lfemur -48.2538 -6.55055 -12.5644
ltibia 55.5884
lfoot -11.7927 -18.1568
ltoes -5.26743
1051
root 4.41007 16.21 3.16125 8.90134 -38.3163 -0.685908
lowerback 10.656 4.76146 1.53825
upperback 1.36058 6.35345 -2.39671
thorax -4.0814 3.09721 -4.22768
lowerneck -21.7065 -5.3691 -8.73071
upperneck 18.4175 -7.59778 12.4752
head 10.3261 -2.71115 4.72908
rclavicle -3.99557e-014 -5.1684e-015
rhumerus 41.4463 -9.81004 -53.3189
rradius 78.7548
rwrist 11.2755
rhand -12.6622 16.9103
rfingers 7.12502
rthumb 13.4188 -12.6375
lclavicle -3.99557e-014 -5.1684e-015
lhumerus 14.8217 -31.9739 83.9765
lradius 126.584
lwrist -14.9647
lhand -3.76779 6.35204
lfingers 7.12502
lthumb 21.9769 35.1236
rfemur 3.86803 -7.1882 14.9136
rtibia 43.7307
rfoot -29.2529 -18.0839
rtoes -18.9155
lfemur -48.223 -6.47712 -12.2991
ltibia 55.4688
lfoot -11.8641 -17.9112
ltoes -5.74077
1052
root 4.41365 16.2092 3.11834 8.98325 -38.4758 -0.782563
lowerback 10.5721 4.80157 1.31902
upperback 1.3144 6.38659 -2.2911
thorax -4.1171 3.11609 -3.99587
lowerneck -21.548 -5.34243 -9.22544
upperneck 18.434 -7.3999 12.4383
head 10.2947 -2.66543 4.83358
rclavicle -2.13694e-015 6.36111e-015
rhumerus 38.8358 -8.80968 -54.4362
rradius 83.8308
rwrist 8.07938
rhand -12.2951 17.1906
rfingers 7.12502
rthumb 13.7726 -12.3336
lclavicle -2.13694e-015 6.36111e-015
lhumerus 14.6217 -31.4332 84.0666
lradius 126.52
lwrist -15.2567
lhand -3.79057 6.54728
lfingers 7.12502
lthumb 21.9551 35.3214
rfemur 3.58489 -7.26477 14.6635
rtibia 43.9257
rfoot -28.4503 -17.5488
rtoes -22.0208
lfemur -48.2643 -6.48455 -12.0396
ltibia 55.2961
lfoot -11.9446 -17.7257
ltoes -6.71169
1053
root 4.41802 16.2069 3.07078 8.97283 -38.5834 -0.733919
lowerback 10.4779 4.77645 0.908512
upperback 1.29666 6.3137 -2.13384
thorax -4.15147 3.08582 -3.58939
lowerneck -21.4867 -5.30578 -9.82008
upperneck 18.5009 -7.15827 12.4188
head 10.2972 -2.60084 4.96967
rclavicle -1.13755e-013 1.49089e-014
rhumerus 36.2871 -7.68378 -55.6968
rradius 88.9771
rwrist 4.90032
rhand -11.8798 17.4836
rfingers 7.12502
rthumb 14.1728 -12.0129
lclavicle -1.13755e-013 1.49089e-014
lhumerus 14.4014 -30.6607 84.178
lradius 126.465
lwrist -15.4656
lhand -3.6721 6.57528
lfingers 7.12502
lthumb 22.0688 35.336
rfemur 3.36855 -7.28896 14.3117
rtibia 44.1384
rfoot -28.1585 -16.4644
rtoes -23.2965
lfemur -48.3224 -6.6396 -11.8465
ltibia 55.0882
lfoot -11.8579 -17.5468
ltoes -7.16513
1054
root 4.42306 16.2083 3.0273 8.89338 -38.7226 -0.728203
lowerback 10.3731 4.7088 0.618446
upperback 1.34222 6.19983 -1.95661
thorax -4.10389 3.03574 -3.21863
lowerneck -21.5432 -5.2232 -10.3835
upperneck 18.6646 -6.85336 12.3666
head 10.3438 -2.50403 5.10129
rclavicle 5.11871e-015 -7.55382e-015
rhumerus 33.7817 -6.52878 -57.0483
rradius 94
rwrist 1.87281
rhand -11.0561 17.964
rfingers 7.12502
rthumb 14.9665 -11.4752
lclavicle 5.11871e-015 -7.55382e-015
lhumerus 14.2149 -29.8394 84.211
lradius 126.368
lwrist -15.6809
lhand -3.84259 6.77088
lfingers 7.12502
lthumb 21.9051 35.5508
rfemur 3.31275 -7.1623 13.9687
rtibia 44.3566
rfoot -28.0746 -14.7845
rtoes -22.7856
lfemur -48.2464 -6.86484 -11.5995
ltibia 54.8713
lfoot -11.5702 -17.2968
ltoes -6.77452
1055
root 4.43111 16.2124 2.98348 8.79343 -38.9055 -0.780679
lowerback 10.3276 4.58003 0.446824
upperback 1.3956 6.01802 -1.78241
thorax -4.06966 2.9498 -2.91316
lowerneck -21.9078 -5.05521 -10.6542
upperneck 19.1479 -6.43882 11.9767
head 10.5216 -2.36249 5.08424
rclavicle 6.9028e-014 -1.39149e-015
rhumerus 31.3336 -5.24769 -58.5865
rradius 98.8105
rwrist -0.675244
rhand -10.376 18.6195
rfingers 7.12502
rthumb 15.6215 -10.7697
lclavicle 6.9028e-014 -1.39149e-015
lhumerus 14.0058 -28.9166 84.2352
lradius 126.245
lwrist -15.8247
lhand -4.07204 6.77792
lfingers 7.12502
lthumb 21.6848 35.5835
rfemur 3.2782 -7.0019 13.6803
rtibia 44.5578
rfoot -27.5688 -13.3834
rtoes -23.6686
lfemur -48.0941 -7.03354 -11.3408
ltibia 54.6553
lfoot -11.3707 -16.9676
ltoes -6.8662
1056
root 4.43942 16.2227 2.93393 8.50131 -39.1131 -0.663319
lowerback 10.47 4.48713 0.0514172
upperback 1.44054 5.85339 -1.65784
thorax -4.16248 2.87244 -2.55587
lowerneck -22.54 -4.92752 -10.5144
upperneck 19.8748 -6.12517 11.2609
head 10.8273 -2.26846 4.86533
rclavicle 7.38982e-014 -1.98785e-014
rhumerus 28.8044 -4.10631 -60.1812
rradius 103.426
rwrist -2.5589
rhand -9.96617 19.1733
rfingers 7.12502
rthumb 16.0162 -10.1847
lclavicle 7.38982e-014 -1.98785e-014
lhumerus 13.8517 -28.1049 84.2542
lradius 126.132
lwrist -15.7441
lhand -4.27862 6.66599
lfingers 7.12502
lthumb 21.4864 35.4943
rfemur 3.32534 -6.92946 13.2258
rtibia 44.7199
rfoot -26.8845 -12.1096
rtoes -25.0555
lfemur -47.868 -7.18149 -11.283
ltibia 54.442
lfoot -11.3864 -16.5294
ltoes -7.93791
1057
root 4.44911 16.2336 2.88287 8.17375 -39.2998 -0.487662
lowerback 10.6272 4.41737 -0.359935
upperback 1.45339 5.71388 -1.58612
thorax -4.2893 2.80739 -2.2499
lowerneck -22.765 -4.81143 -10.4732
upperneck 20.2313 -5.87127 10.8338
head 10.9493 -2.19288 4.75051
rclavicle -3.77691e-014 1.03368e-014
rhumerus 26.1657 -3.14292 -61.8242
rradius 107.76
rwrist -3.68524
rhand -9.79054 19.6901
rfingers 7.12502
rthumb 16.1853 -9.65415
lclavicle -3.77691e-014 1.03368e-014
lhumerus 13.7082 -27.3988 84.1962
lradius 126.105
lwrist -15.2817
lhand -4.32009 6.79822
lfingers 7.12502
lthumb 21.4466 35.6311
rfemur 3.40267 -6.80318 12.7595
rtibia 44.844
rfoot -26.3773 -10.7485
rtoes -25.4465
lfemur -47.6631 -7.43038 -11.233
ltibia 54.2261
lfoot -11.2318 -16.1151
ltoes -8.63833
1058
root 4.45821 16.2421 2.83164 7.9702 -39.5112 -0.436823
lowerback 10.6247 4.37528 -0.588862
upperback 1.50468 5.63469 -1.51679
thorax -4.26597 2.77204 -2.03812
lowerneck -22.6453 -4.69496 -10.6534
upperneck 20.1804 -5.63461 10.7716
head 10.8815 -2.11045 4.79583
rclavicle -1.94809e-014 2.42517e-014
rhumerus 23.5718 -2.33926 -63.4544
rradius 111.831
rwrist -4.48503
rhand -9.78911 20.3251
rfingers 7.12502
rthumb 16.1867 -9.0191
lclavicle -1.94809e-014 2.42517e-014
lhumerus 13.6197 -26.7049 84.1321
lradius 126.111
lwrist -14.4817
lhand -4.07437 6.97449
lfingers 7.12502
lthumb 21.6825 35.7803
rfemur 3.45727 -6.53196 12.448
rtibia 44.9207
rfoot -26.2105 -9.30391
rtoes -24.9406
lfemur -47.4843 -7.64417 -11.0427
ltibia 53.9938
lfoot -11.0005 -15.807
ltoes -9.44951
1059
root 4.46465 16.2502 2.77463 7.76546 -39.8011 -0.443273
lowerback 10.6195 4.41572 -0.829429
upperback 1.6223 5.6627 -1.46212
thorax -4.16845 2.78991 -1.84598
lowerneck -22.8063 -4.64616 -10.6344
upperneck 20.2084 -5.53668 10.6916
head 10.9058 -2.0693 4.77971
rclavicle -1.00734e-013 6.36111e-015
rhumerus 21.0379 -1.78955 -65.0747
rradius 115.531
rwrist -4.95157
rhand -10.0641 21.1401
rfingers 7.12502
rthumb 15.9219 -8.22545
lclavicle -1.00734e-013 6.36111e-015
lhumerus 13.6738 -26.1362 84.0326
lradius 126.1
lwrist -13.8222
lhand -3.80935 6.91682
lfingers 7.12502
lthumb 21.937 35.693
rfemur 3.50272 -6.17823 12.2178
rtibia 44.9442
rfoot -26.1483 -8.04535
rtoes -24.3991
lfemur -47.2217 -7.6505 -10.8533
ltibia 53.7392
lfoot -10.8272 -15.5162
ltoes -10.1954
1060
root 4.47222 16.2622 2.71554 7.66484 -40.09 -0.543009
lowerback 10.5846 4.45015 -1.02364
upperback 1.70741 5.69091 -1.37109
thorax -4.08798 2.80715 -1.64124
lowerneck -22.8121 -4.62623 -10.8321
upperneck 20.0838 -5.49704 10.953
head 10.8714 -2.03565 4.91501
rclavicle -7.50412e-015 -3.77691e-015
rhumerus 18.4963 -1.28299 -66.7139
rradius 118.958
rwrist -4.97385
rhand -10.2749 21.8602
rfingers 7.12502
rthumb 15.7189 -7.52144
lclavicle -7.50412e-015 -3.77691e-015
lhumerus 13.6435 -25.5891 83.9714
lradius 126.111
lwrist -13.3794
lhand -3.67921 6.59456
lfingers 7.12502
lthumb 22.062 35.3561
rfemur 3.45932 -5.93947 12.0744
rtibia 44.9087
rfoot -25.8942 -6.93553
rtoes -24.2189
lfemur -47.0002 -7.57222 -10.6025
ltibia 53.4444
lfoot -10.5836 -15.2486
ltoes -11.0303
1061
root 4.48327 16.2765 2.65809 7.62869 -40.4118 -0.698182
lowerback 10.5119 4.42486 -1.14058
upperback 1.73812 5.6529 -1.22505
thorax -4.04265 2.79097 -1.41306
lowerneck -22.3089 -4.53467 -11.3773
upperneck 19.5856 -5.33791 11.5198
head 10.6111 -1.95328 5.23124
rclavicle 1.42529e-013 -4.30369e-014
rhumerus 15.9626 -0.559874 -68.5302
rradius 122.223
rwrist -4.79845
rhand -10.2268 22.3483
rfingers 7.12502
rthumb 15.7652 -7.02967
lclavicle 1.42529e-013 -4.30369e-014
lhumerus 13.4035 -24.8471 84.0227
lradius 126.209
lwrist -13.0592
lhand -3.7096 6.33027
lfingers 7.12502
lthumb 22.0328 35.0952
rfemur 3.41757 -5.71828 11.9736
rtibia 44.8343
rfoot -25.6153 -5.8304
rtoes -24.0124
lfemur -46.795 -7.54133 -10.2787
ltibia 53.1203
lfoot -10.2905 -14.9943
ltoes -11.8702
